<mxfile host="app.diagrams.net" agent="Mozilla/5.0 (Windows NT 10.0; Win64; x64) AppleWebKit/537.36 (KHTML, like Gecko) Chrome/135.0.0.0 Safari/537.36 Edg/135.0.0.0" version="26.2.13">
  <diagram name="Page-1" id="M6Z0tEDK_Vcs0Gl7ywWB">
    <mxGraphModel dx="814" dy="1613" grid="1" gridSize="10" guides="1" tooltips="1" connect="1" arrows="1" fold="1" page="1" pageScale="1" pageWidth="850" pageHeight="1100" math="0" shadow="0">
      <root>
        <mxCell id="0" />
        <mxCell id="1" parent="0" />
        <mxCell id="yB37gS5FSce4S3CVsZji-8" value="" style="edgeStyle=orthogonalEdgeStyle;rounded=0;orthogonalLoop=1;jettySize=auto;html=1;" edge="1" parent="1" target="yB37gS5FSce4S3CVsZji-5">
          <mxGeometry relative="1" as="geometry">
            <mxPoint x="150" y="50" as="sourcePoint" />
          </mxGeometry>
        </mxCell>
        <mxCell id="yB37gS5FSce4S3CVsZji-10" value="" style="edgeStyle=orthogonalEdgeStyle;rounded=0;orthogonalLoop=1;jettySize=auto;html=1;" edge="1" parent="1" source="yB37gS5FSce4S3CVsZji-5" target="yB37gS5FSce4S3CVsZji-9">
          <mxGeometry relative="1" as="geometry" />
        </mxCell>
        <mxCell id="yB37gS5FSce4S3CVsZji-5" value="&lt;b&gt;&lt;font face=&quot;Helvetica&quot; style=&quot;font-size: 18px;&quot;&gt;&lt;br&gt;&lt;/font&gt;&lt;/b&gt;&lt;pre style=&quot;&quot;&gt;&lt;div&gt;&lt;b&gt;&lt;font face=&quot;Helvetica&quot; style=&quot;font-size: 18px;&quot;&gt;Students&lt;/font&gt;&lt;/b&gt;&lt;/div&gt;&lt;div&gt;&lt;b&gt;&lt;font face=&quot;Helvetica&quot; style=&quot;font-size: 18px;&quot;&gt; Register&lt;/font&gt;&lt;/b&gt;&lt;/div&gt;&lt;/pre&gt;&lt;b&gt;&lt;font style=&quot;font-size: 15px;&quot;&gt;&lt;br&gt;&lt;/font&gt;&lt;/b&gt;" style="rounded=0;whiteSpace=wrap;html=1;" vertex="1" parent="1">
          <mxGeometry x="240" y="15" width="130" height="69" as="geometry" />
        </mxCell>
        <mxCell id="yB37gS5FSce4S3CVsZji-12" value="" style="edgeStyle=orthogonalEdgeStyle;rounded=0;orthogonalLoop=1;jettySize=auto;html=1;" edge="1" parent="1" source="yB37gS5FSce4S3CVsZji-9" target="yB37gS5FSce4S3CVsZji-11">
          <mxGeometry relative="1" as="geometry" />
        </mxCell>
        <mxCell id="yB37gS5FSce4S3CVsZji-9" value="&lt;font style=&quot;font-size: 16px;&quot;&gt;&lt;br&gt;&lt;/font&gt;&lt;pre style=&quot;&quot;&gt;&lt;div&gt;&lt;font face=&quot;Helvetica&quot; style=&quot;font-size: 17px;&quot;&gt;&lt;b style=&quot;&quot;&gt;Exams&lt;/b&gt;&lt;/font&gt;&lt;/div&gt;&lt;div&gt;&lt;font face=&quot;Helvetica&quot; style=&quot;font-size: 17px;&quot;&gt; &lt;b&gt;Conducted&lt;/b&gt;&lt;/font&gt;&lt;/div&gt;&lt;/pre&gt;&lt;font style=&quot;font-size: 16px;&quot;&gt;&lt;br&gt;&lt;/font&gt;" style="whiteSpace=wrap;html=1;rounded=0;" vertex="1" parent="1">
          <mxGeometry x="440" y="20" width="120" height="60" as="geometry" />
        </mxCell>
        <mxCell id="yB37gS5FSce4S3CVsZji-11" value="&lt;pre&gt;&lt;font style=&quot;font-size: 16px;&quot;&gt;&lt;font style=&quot;&quot; face=&quot;Helvetica&quot;&gt;&lt;b style=&quot;&quot;&gt;Final &lt;/b&gt;&lt;/font&gt;&lt;font style=&quot;background-color: transparent; color: light-dark(rgb(0, 0, 0), rgb(255, 255, 255)); white-space: normal;&quot; face=&quot;Helvetica&quot;&gt;&lt;b&gt;Placement &lt;/b&gt;&lt;/font&gt;&lt;b style=&quot;background-color: transparent; color: light-dark(rgb(0, 0, 0), rgb(255, 255, 255)); font-family: Helvetica; white-space: normal;&quot;&gt;Results&lt;/b&gt;&lt;/font&gt;&lt;/pre&gt;" style="whiteSpace=wrap;html=1;rounded=0;" vertex="1" parent="1">
          <mxGeometry x="650" y="19.5" width="120" height="60" as="geometry" />
        </mxCell>
        <mxCell id="yB37gS5FSce4S3CVsZji-13" value="&lt;br&gt;&lt;pre style=&quot;&quot;&gt;&lt;div&gt;&lt;font style=&quot;font-size: 15px;&quot; face=&quot;Helvetica&quot;&gt;&lt;b style=&quot;&quot;&gt;Company &lt;span style=&quot;background-color: transparent; color: light-dark(rgb(0, 0, 0), rgb(255, 255, 255)); white-space: normal;&quot;&gt;Creates Placement Drive&lt;/span&gt;&lt;/b&gt;&lt;/font&gt;&lt;/div&gt;&lt;/pre&gt;&lt;div&gt;&lt;br/&gt;&lt;/div&gt;" style="rounded=0;whiteSpace=wrap;html=1;" vertex="1" parent="1">
          <mxGeometry x="20" y="20" width="130" height="60" as="geometry" />
        </mxCell>
      </root>
    </mxGraphModel>
  </diagram>
</mxfile>
